<svg version="1.0" xmlns="http://www.w3.org/2000/svg" viewBox="0 0 1024 1024">
  <path d="M328.8 189.5l-10.8.9c-16.8 1-20 1.5-45.5 7.1a285 285 0 00-33.4 12.1 399.4 399.4 0 00-83.7 52.8 404.1 404.1 0 00-37.7 38.6A300.8 300.8 0 0075 374.5a542.3 542.3 0 00-13.5 40.3c-.2 1.5-1.2 5.4-2 8.7a428.4 428.4 0 00-8 151.5l1 6.5.9 5 1.1 5a299.8 299.8 0 0030.9 84c4 7.3 19.5 30.9 22.4 34.1l4.7 5.9a332.6 332.6 0 0057.1 58.5 178.8 178.8 0 0020.3 13.4c2.2 2 15.7 9 26.6 13.8 14.8 6.5 42.4 15 56.5 17.4l7.5 1.4c8.1 1.5 10.7 1.9 16.5 2.5 3 .4 6.6.8 8 1.1 14.3 2.6 55 2.6 76.5 0 8.4-1 27-5.4 38.5-9a295.3 295.3 0 0086.4-47.5c13.3-10.1 11.7-8.8 20-16.3a300.9 300.9 0 0084.1-130.1c4.7-14.2 9.5-31.1 10.8-38.7l1.1-5 1-5 2-11c.8-4.7 1.8-10.5 2.1-13l1.1-7.5c.5-3.2.9-7.3 2.1-22 1.5-17 .7-61-1.2-72.7l-2.1-13.6a85 85 0 00-.9-5.2c-.3-.8-.7-3.3-1.1-5.5-.7-4.4-.7-4.6-1.9-9-14.2-56.1-38.6-97.4-84.5-143.6a239.2 239.2 0 00-86.5-58.2 313.5 313.5 0 00-67.5-17.2l-7-1.1-8-.9c-7-.9-40.6-2.5-41.2-2zm39.2 25a82.7 82.7 0 0115 2c16.5 2 43.4 9.9 58.1 17.1 37.3 18.3 63.3 47.9 84.9 96.9 3.6 8.1 10.2 33.8 11.5 45l1 6.5c2.6 10.5 2.6 70.4 0 93.5l-1 10-1 10.2-1 8.5a752 752 0 01-4 30.8l-1.5 10.5-1.4 10-1 6.5c-.9 5.4-1.4 8.7-2.1 12l-1.6 8.5-1.4 8-3.4 16.5c-2.5 12-4.7 20.4-12.4 47.5a286.3 286.3 0 01-29.9 65.5c-3.4 5.2-6.5 9.7-6.8 10l-4.5 5.5a233 233 0 01-36.5 34.6 152.2 152.2 0 01-91.5 32.3 265.4 265.4 0 01-46-4l-12-2.6-9.5-2.3c-1.8-.3-12.6-4.1-18-6.3a141.4 141.4 0 01-44.1-28.4 233.4 233.4 0 01-49.3-78 313.7 313.7 0 01-13.1-50.8c-.5-2.4-1-6.3-2-14a701.7 701.7 0 01-1.2-90c1.3-15.5 2.4-26.7 3.2-32l1.4-10.5c1.1-8.4 1.6-11.4 3.1-20.5l1.6-9.5a644.2 644.2 0 0114.6-62.5c7.9-25.3 13-38.3 22.8-58.5a222 222 0 0145.9-65.5 451 451 0 0117.9-17c24.8-20.8 52-33.2 78.2-35.6 4.1-.3 7.6-.7 7.7-.8.5-.4 21.8.2 29.3.9zM702 196.5l-6.6 16.3a48289 48289 0 01-50.3 126.7l-4.1 10-3.9 10-3.4 8.2-2.5 6.2 4.3 13.3a849 849 0 014.7 15.3c.2 1.4.9.6 2.2-3a5952.4 5952.4 0 0020.5-52c14-36.1 18.1-45.2 18.1-40.3 0 .7 1.8 5.6 4 10.8l25 62.5a10765.7 10765.7 0 0034 85l18.5 46 9 22.5c4.2 10.7 8.5 21.3 9.5 23.5 2.8 6.4 3.2 8.2 1.8 8.7-.7.2-32.5.3-70.6.3-47.7-.1-69.5.2-70 .9-.4.6-1.6 5.3-2.8 10.3l-2.1 9.3h6.1l77.4.3 71.3.2 2.5 6.5 3.4 8.5 5.4 13.5a3204.3 3204.3 0 0019.6 50l2.9 7.5 7 17.5 13.5 34.5 15 38.5 8.5 21.5 6.2 15.5a169 169 0 005.9 14.3c.3.4 21.6.6 47.2.5l46.6-.3-3.4-8.5-10.9-26.5-4.3-10.5-25.7-63-35.6-87.5-14.4-35-9-22-9-22a10147.6 10147.6 0 01-35-86l-13.5-33-13.5-33-4.5-11-4.5-11-30-73.5a7152.9 7152.9 0 00-21-51.5l-8.8-21.5-9.6-23.3-2-4.7h-17.2l-1.9 4.5z"/>
</svg>
