<svg version="1.0" xmlns="http://www.w3.org/2000/svg" viewBox="0 0 512 512"><path d="M0 256v256h512V0H0v256zm213-121c23 4 39 13 55 30 15 15 24 29 29 47 9 27 6 68-7 98s-45 58-75 66c-23 6-55 2-77-9-24-11-46-38-56-67-12-35-5-85 15-116 17-25 49-47 76-51 7-1 31 0 40 1zm173 118l49 121c1 1-3 1-17 1h-18l-18-44-17-45h-60v-2l1-4c0-2 2-2 28-2h28l-20-50-21-50-7 18-8 18-2-5-1-6 13-35 14-35h7l49 120z"/><path d="M182 142c-11 2-24 10-35 21-16 18-27 44-33 83-2 17-2 47 0 59 7 31 23 53 46 60 20 7 39 6 54-2 7-3 19-13 25-20 10-13 18-34 22-63 5-27 6-42 6-60-1-20-2-26-8-38a64 64 0 00-45-38c-10-2-24-3-32-2z"/></svg>